<svg id="Black_Logo" xmlns="http://www.w3.org/2000/svg" viewBox="0 0 1080 740"><path d="M1040,13.06V160.11h-13.18c-169.32,0-338.65-.48-508,.35-60.9.29-120.94,9.39-178.66,29.69-49.43,17.39-93,43.52-124.52,87.1C176.83,331,178.89,417.62,220,469.58c34.55,43.64,81.15,68,132.59,84.51,63,20.21,128.28,26.74,194.08,27,138.28.54,276.56.16,414.85.15h78v145c-3.39.17-7.91.59-12.43.6-169.32.19-338.64,1.2-507.95.16-91.33-.56-180.53-15.51-264.76-52.82-74.43-33-136.13-81.21-176.13-153.65-67.48-122.24-43.73-276.25,56.23-374,59.41-58.07,131.84-90.42,210.81-111C409.54,18.8,475.09,12.8,541.17,12.67c161.57-.29,323.13.21,484.69.39Z"/></svg>