<svg xmlns="http://www.w3.org/2000/svg" viewBox="0 0 1080 550"><defs><style>.cls-1{fill:#f9f9f9;}</style></defs><g id="Black_Full"><path class="cls-1" d="M748.51,249.22v61.46c-1.92.12-4.19.37-6.46.38-70.9.08-141.8.63-212.69,0-40.51-.35-80.07-7.22-116.71-25.67-40.63-20.46-69.39-51-79-96.88C322.52,135.6,344.77,82.06,390,51.67A211.7,211.7,0,0,1,486,16.56a789.23,789.23,0,0,1,79.45-4.39c58.68-.51,117.38.08,176.08.21h6.82V73.5c-2.09.1-4,.27-5.85.26-69.46-.07-138.93-.65-208.39,0-34.63.31-68.75,5.06-99.73,22.47-20,11.25-35.56,26.53-40.35,49.8-5.8,28.24,2.42,52.17,24.85,70.65,19.08,15.71,41.8,23.22,65.62,27.94,28.17,5.59,56.74,5.47,85.27,5.4,57.79-.14,115.58-.5,173.37-.77Z"/><path class="cls-1" d="M417,460.82V382.59a34.37,34.37,0,0,1,4.23-.55c26.74,0,53.49-.14,80.23,0,14.62.09,24.86,8.56,25.58,22.11.32,5.92-2.17,12-3.55,18.78,1,3.45,3.16,8.1,3.72,12.94a22.49,22.49,0,0,1-22,25.2c-28.53.18-57.07.05-85.61,0C418.92,461.13,418.22,461,417,460.82ZM433.33,445h70a8.79,8.79,0,0,0,1.6-.22c3.81-.71,6.18-2.79,6.26-6.85s-1.75-6.56-5.71-7.28a38.26,38.26,0,0,0-6.92-.66q-29.35-.07-58.69,0h-6.54Zm0-31.42c23.62,0,46.55,0,69.49,0,1.22,0,2.87-.09,3.59-.84,1.81-1.9,4.38-4.16,4.45-6.35s-2-5.28-4-6.59-5.16-1.18-7.81-1.2c-20.08-.08-40.16,0-60.24,0-1.74,0-3.47.17-5.46.28Z"/><polygon class="cls-1" points="1062.9 444.81 1062.9 460.71 952.7 460.71 952.7 382.39 1062.76 382.39 1062.76 398.25 969.08 398.25 969.08 413.68 1031.37 413.68 1031.37 429.78 969 429.78 969 444.81 1062.9 444.81"/><polygon class="cls-1" points="299.64 413.65 361.76 413.65 361.76 429.86 299.66 429.86 299.66 444.73 393.34 444.73 393.34 460.86 283.56 460.86 283.56 382.4 393.43 382.4 393.43 398.33 299.64 398.33 299.64 413.65"/><polygon class="cls-1" points="629.75 413.35 629.75 429.77 567.59 429.77 567.59 444.88 660.94 444.88 660.94 460.87 551.28 460.87 551.28 382.53 660.97 382.53 660.97 398.4 567.54 398.4 567.54 413.35 629.75 413.35"/><path class="cls-1" d="M166.13,429v30.9H150.38V382.69a25.2,25.2,0,0,1,3.85-.64c26.74,0,53.48-.2,80.22,0,15.75.13,25.69,10.48,25.11,25.34A22.18,22.18,0,0,1,237.71,429c-8.24.16-16.49,0-25.35,0,1.09,5.51,4,9.41,8.76,10.81A134.27,134.27,0,0,0,242,444c4.74.62,9.64.12,15,.12v16c-14.15.3-28.32.77-41.65-5.16a33.35,33.35,0,0,1-19.13-22c-.46-1.56-2.45-3.71-3.81-3.77C184,428.84,175.58,429,166.13,429Zm.64-16.42c2,.1,3.77.26,5.51.26q30.61,0,61.24,0a31.38,31.38,0,0,0,3.76-.07c3.63-.44,5.91-2.25,6.2-6.15s-1-6.76-5-7.73a29.76,29.76,0,0,0-6.91-.77q-30.09-.09-60.17,0c-1.53,0-3,.27-4.64.43Z"/><path class="cls-1" d="M126.35,383.07v15.68c-2.87,0-5.47,0-8.08,0-19.17.34-38.36.3-57.49,1.27a41.38,41.38,0,0,0-17.23,5.34c-14.25,7.91-13.92,25,.19,33.23,9.18,5.33,19.36,6.24,29.61,6.36,17.38.2,34.76.05,52.74.05v15.36c-.27.15-.58.46-.88.46-22.39-.23-44.82.08-67.17-1a46,46,0,0,1-31.19-14.06c-15.58-15.92-12-42.25,7.19-53.69,11.33-6.76,23.73-9,36.57-9.26,17.57-.32,35.15-.11,52.73-.1A29.55,29.55,0,0,1,126.35,383.07Z"/><polygon class="cls-1" points="834.55 444.73 928.75 444.73 928.75 460.66 818.98 460.66 818.98 382.04 834.55 382.04 834.55 444.73"/><polygon class="cls-1" points="794.77 444.62 794.77 460.64 685.13 460.64 685.13 381.99 700.72 381.99 700.72 444.62 794.77 444.62"/><path class="cls-1" d="M472.13,537.52V514.91c8.81,0,17.34,0,25.87,0,.51,0,1.3.1,1.5.43,1.49,2.38,4.37,5.14,3.95,7.19-1.09,5.33,3.83,14.19-6.75,14.87C488.71,537.93,480.66,537.52,472.13,537.52ZM488,528.35v0c-3,0-6.09-.16-9.11.11-.77.07-1.72,1.43-2,2.37-.12.44,1.2,1.84,1.9,1.85q8.83.24,17.69,0c.79,0,1.55-1.14,2.33-1.75-.75-.85-1.42-2.35-2.25-2.44A79,79,0,0,0,488,528.35ZM476.25,522l1.33,1.68c6,0,12.05.09,18.06-.08,1.11,0,2.19-1.14,3.28-1.75-1.12-.83-2.21-2.31-3.37-2.37-5.32-.26-10.66-.27-16,0C478.43,519.51,477.36,521.09,476.25,522Z"/><path class="cls-1" d="M776.47,527.06c0,3.67.21,5.8-.1,7.85-.13.86-1.38,1.54-2.12,2.31-.74-.77-2.1-1.52-2.12-2.3-.17-6.59-.09-13.17-.09-20.1,8.8,0,17-.19,25.17.09,3.85.13,6.3,2.55,6.23,6.67S800.8,527.65,797,528c-2,.18-3.92,0-6.39,0,1.55,4.74,5.18,3.94,8.29,4.51,1.49.27,2.78,1.65,4.16,2.52-1.53.74-3.09,2.13-4.6,2.08-5.35-.16-9.92-1.62-13.07-6.88C784.22,528.41,780.17,528.31,776.47,527.06Zm1-7.8-1.35,1.65c1.13.88,2.23,2.47,3.4,2.53,5.36.28,10.74.24,16.1,0,1.07,0,2.08-1.31,3.12-2-1-.74-2-2.07-3.07-2.1C789.57,519.16,783.5,519.26,777.43,519.26Z"/><path class="cls-1" d="M376.25,534.28c-1.38,1-2.76,2.88-4.13,2.86-5.63-.07-10.8-1-14.08-6.9-1-1.84-5.23-1.92-9.08-3.15,0,3.69.22,5.81-.1,7.85-.14.86-1.42,1.52-2.19,2.28-.7-.8-2-1.58-2-2.39-.17-6.58-.1-13.17-.1-20.07,8.79,0,17-.18,25.19.07,4.27.13,6.49,2.87,6.2,7.16-.27,4.07-2.8,6-6.77,6.1-1.91,0-3.83,0-6.4,0C365.81,533.86,370.9,531.72,376.25,534.28Zm-16.2-10.71a76.55,76.55,0,0,0,8-.09c1.13-.12,2.16-1.23,3.23-1.89-1-.77-1.94-2.17-3-2.21-5.52-.23-11-.2-16.58,0-.85,0-1.68,1.22-2.51,1.88.92.78,1.78,2.11,2.79,2.23A71.27,71.27,0,0,0,360.05,523.57Z"/><path class="cls-1" d="M957.54,519.32c-7.53,0-15.06-.11-22.58.11-1.29,0-2.53,1.44-3.8,2.22,1.19.67,2.35,1.82,3.59,1.92,3.75.27,7.55,0,11.29.28,1.12.1,2.12,1.55,3.18,2.38-1,.73-2,2-3,2.1-3.93.22-7.9-.11-11.83.08-1.1.05-2.14,1.19-3.2,1.83,1,.86,2.05,2.42,3.11,2.46,6.64.23,13.29,0,19.92.25,1.43.06,2.8,1.6,4.19,2.46-1.34.72-2.67,2-4,2.05-9.12.18-18.23.09-27.69.09v-22.8c9.89,0,19.54-.1,29.18.13,1.06,0,2.08,2,3.12,3Z"/><path class="cls-1" d="M199.44,537.55V514.76c9.93,0,19.7-.09,29.48.13,1,0,2,1.89,2.94,2.9l-.75,1.53c-7.82,0-15.64.06-23.46,0-3,0-4.56.66-2.93,4.45,4.52,0,9.16-.15,13.77.1,1.18.06,2.29,1.38,3.43,2.12-1.08.82-2.1,2.27-3.23,2.37-3.56.29-7.18-.14-10.74.15-1.36.11-2.63,1.38-3.95,2.12,1.35.74,2.67,2.07,4,2.12,6.44.23,12.9,0,19.35.22,1.32,0,2.58,1.46,3.87,2.25-1.27.79-2.52,2.23-3.81,2.26C218.33,537.64,209.2,537.55,199.44,537.55Z"/><path class="cls-1" d="M733.57,537.55v-22.8c9.77,0,19.24-.1,28.69.12,1.13,0,2.22,1.81,3.33,2.78l-.9,1.67c-7.67,0-15.34,0-23,0-2.68,0-4.8.23-3.29,4.29h16.84c1.34,3.19,1.06,4.92-2.45,4.86s-6.84-.24-10.23,0c-1.6.13-3.13,1.2-4.69,1.85,1.61.82,3.18,2.29,4.83,2.37,5.91.29,11.85,0,17.76.22,1.55.07,3,1.42,4.57,2.18-1.44.82-2.85,2.3-4.31,2.33C751.78,537.66,742.84,537.55,733.57,537.55Z"/><path class="cls-1" d="M387.33,520.94c1.18.9,2.31,2.51,3.55,2.58,4.79.31,9.61.13,14.34.13,1.31,3.42.57,4.91-2.74,4.81-4-.11-7.91-.26-11.84-.06-1,.05-1.94,1.38-2.91,2.12.95.76,1.89,2.14,2.87,2.18,6.64.2,13.29,0,19.92.24,1.49.06,2.92,1.53,4.38,2.36-1.5.75-3,2.12-4.49,2.15-8.77.21-17.55.1-26.8.1V514.79c9.7,0,19.49-.08,29.27.15.83,0,1.61,2.12,3.18,4.35H388.24C387.94,519.84,387.64,520.39,387.33,520.94Z"/><path class="cls-1" d="M815.89,523.8H832.7l1.08,1.55c-1.27,1-2.47,2.81-3.84,2.95-3.72.39-7.53-.12-11.27.18-1.35.11-2.6,1.51-3.9,2.31l.79,2h20.22a15.14,15.14,0,0,1,4.27.16,3.33,3.33,0,0,1,2.09,2.25,3.05,3.05,0,0,1-2.07,2.19c-9.64.15-19.28.1-29.25.1V514.77c9.81,0,19.6-.09,29.38.14.89,0,1.73,2.06,3.57,4.41-9.47,0-17.14.06-24.8,0C816.14,519.26,814.32,519.74,815.89,523.8Z"/><path class="cls-1" d="M572.24,525.44c-1.24,1-2.42,2.74-3.74,2.86-3.9.34-7.88-.19-11.79.12-1.28.1-2.45,1.73-3.67,2.67l.89,1.74c7.3,0,14.6-.15,21.89.11,1.63.06,3.21,1.57,4.82,2.41-1.5.73-3,2.07-4.5,2.1-8.75.21-17.5.1-26.75.1V514.77c9.66,0,19.42-.08,29.18.15.87,0,1.68,2.08,3.43,4.4-9.4,0-17,.07-24.71,0-2.81,0-4.59.47-3.28,4.29h16.93Z"/><path class="cls-1" d="M605.58,538V515.34c7.5,0,14.79-.5,22,.16A11.15,11.15,0,0,1,637.36,526c.18,4.54-3.44,9.54-9.11,10.44C621,537.56,613.46,537.53,605.58,538Zm4.48-18.44c0,3.66-.35,6.91.16,10a5,5,0,0,0,3.46,3.24,60.74,60.74,0,0,0,11.74-.52c3.75-.5,7.73-2.34,6.68-6.59-.6-2.46-4.21-5.32-6.9-5.88C620.59,518.89,615.63,519.59,610.06,519.59Z"/><path class="cls-1" d="M422.18,537.93V515.15c7.15,0,14.09-.51,20.92.15,6.35.62,10.18,5.09,10.43,10.37s-3.08,9.91-9.67,11C436.91,537.76,429.74,537.54,422.18,537.93Zm4.29-19c0,4.55-.18,7.79.1,11,.09,1.07,1.37,3,2.06,2.93,5.15-.14,10.4-.16,15.37-1.3,2-.45,4.56-3.62,4.59-5.58s-2.71-4.93-4.67-5.34C438.44,519.44,432.74,519.41,426.47,518.89Z"/><path class="cls-1" d="M294,528.83c.63-5.29,1.12-9.63,1.8-14a19.4,19.4,0,0,1,3.17,0v21.92l-26.37-13.32c-2.2,13.77-2.2,13.77-5.18,13.52V515.09Z"/><path class="cls-1" d="M326.9,514.87a51,51,0,0,1,7.53.11c1.16.17,2.14,1.54,3.2,2.36-1,.68-2,1.9-3.06,2-4.47.23-9,0-13.45.18-6.21.28-10.71,3.06-10.29,6.57.7,6,5.61,6.24,10.14,6.52,4.29.27,8.62,0,12.9.38,1.31.12,2.51,1.6,3.76,2.46-1.16.71-2.33,2.05-3.48,2-6.07-.07-12.22,0-18.2-.91-6.26-.93-9.92-5.29-10-10.28-.05-5.23,3.82-9.53,10.21-10.73a105.54,105.54,0,0,1,10.69-.92Z"/><path class="cls-1" d="M881.05,537,854,523.05c0,4.1.23,7.43-.11,10.7-.14,1.31-1.52,2.5-2.33,3.75-.76-1.15-2.12-2.28-2.17-3.46-.22-5.88-.1-11.78-.1-18.9L876.53,529c0-4.33-.15-7.85.1-11.34.07-1.05,1.29-2,2-3,.81,1.05,2.29,2.09,2.33,3.18C881.17,523.89,881.05,530,881.05,537Z"/><path class="cls-1" d="M187.83,528.73H166.47c-3.68,1.79,2.11,9.15-5.73,8.68v-22c3.65-.29,3.65-.29,5,8h21.82a25.16,25.16,0,0,1,.34-5.15c.34-1.24,1.47-2.26,2.24-3.39.8,1.09,2.23,2.14,2.28,3.26.24,5.37.24,10.76,0,16.13-.05,1.13-1.45,2.2-2.23,3.3-.79-1.11-1.95-2.13-2.28-3.37C187.52,532.65,187.83,531,187.83,528.73Z"/><path class="cls-1" d="M918.77,519.4c-4.65,0-9.3,0-14,0a24.54,24.54,0,0,0-4.28.33c-3.82.74-7.75,1.82-7.66,6.68s4.14,5.5,7.67,5.86c5,.5,10,.25,15,.64,1.4.11,2.72,1.36,4.07,2.08-1.39.85-2.77,2.43-4.16,2.43-5.89,0-11.86,0-17.65-.9-6.41-1-9.79-5.23-9.76-10.38s3.2-9.41,9.69-10.39,13.2-.75,19.81-.71c.84,0,1.67,2,2.51,3.1Z"/><path class="cls-1" d="M679,525.29c-1.27,1.05-2.47,2.91-3.81,3-4.78.37-9.6.14-14.64.14-.19,3.21-.34,5.83-.49,8.45l-1.21,1.05c-1-1.11-2.91-2.17-3-3.32-.3-6.39-.14-12.81-.14-19.86,10.12,0,19.73-.07,29.33.12.83,0,1.62,1.67,2.42,2.57-1.06.62-2.11,1.76-3.19,1.78-7.69.16-15.38.09-23.18.09-1.52,2.92-1.11,4.4,2.39,4.35,4.8-.08,9.6,0,14.4,0Z"/><path class="cls-1" d="M699.2,528.45c-.16,3.45-.27,5.92-.39,8.4l-1.17,1.06c-1.06-1.07-3-2.11-3-3.23-.29-6.4-.14-12.82-.14-19.92,10.07,0,19.68-.1,29.27.14,1,0,2,2,3,3l-1,1.39H699.56l-.91,1.64c1.18.9,2.32,2.5,3.55,2.57,4.79.31,9.6.13,14.48.13,1.2,3.56.21,4.93-3.23,4.83C708.82,528.36,704.2,528.45,699.2,528.45Z"/><path class="cls-1" d="M135.38,519.12c-4.17,0-7.57.17-10.93-.11-1-.08-1.86-1.44-2.78-2.22.89-.82,1.76-2.35,2.67-2.36,9.63-.17,19.27-.11,28.79-.11,1.84,5.28-1.48,4.83-4.38,4.82h-8.84c0,5.05.17,9.82-.11,14.57-.08,1.27-1.54,2.45-2.36,3.67-.69-1.18-1.91-2.34-2-3.56C135.24,529.21,135.38,524.57,135.38,519.12Z"/><path class="cls-1" d="M510.16,537.45c0-7.26-.08-13.85.1-20.44,0-.81,1.39-1.57,2.13-2.35.77.91,2.16,1.8,2.21,2.75.23,4.8.1,9.62.1,15.2,7.9,0,15.37-.13,22.82.11,1.48,0,2.91,1.52,4.37,2.34-1.47.79-2.92,2.24-4.4,2.28C528.57,537.56,519.65,537.45,510.16,537.45Z"/><path class="cls-1" d="M465,515.74v21.1c-2.59,1.2-4.33,1.18-4.3-2.44,0-5.55-.14-11.1.14-16.63.06-1.16,1.73-2.23,2.65-3.35Z"/><path class="cls-1" d="M260.31,515.9V537c-3,1.21-4.46.57-4.43-2.77.05-5.38-.17-10.77.15-16.14.07-1.23,1.86-2.36,2.86-3.53Z"/><path class="cls-1" d="M644.1,526a72.31,72.31,0,0,1,.1-8.07c.12-1,1.37-1.92,2.1-2.87.83.88,2.34,1.73,2.37,2.64.22,5.73.22,11.48,0,17.22,0,.9-1.56,1.74-2.4,2.61-.72-1-2-1.89-2.07-2.93A85,85,0,0,1,644.1,526Z"/></g></svg>