<svg xmlns="http://www.w3.org/2000/svg" viewBox="0 0 1080 120"><defs><style>.cls-1{fill:#f9f9f9;}</style></defs><g id="Black_Name"><path class="cls-1" d="M523.29,61.4c1.4-6.89,3.93-13,3.6-19.06-.73-13.75-11.13-22.35-26-22.44-27.14-.16-54.27,0-81.41,0a31.69,31.69,0,0,0-4.29.57V99.82a25.51,25.51,0,0,0,2.6.32c29,0,57.92.14,86.88,0a22.82,22.82,0,0,0,22.35-25.57C526.5,69.62,524.33,64.9,523.29,61.4ZM431.78,36.87c2-.11,3.78-.28,5.54-.28,20.37,0,40.75-.05,61.13,0,2.69,0,5.86-.11,7.92,1.21s4.15,4.44,4.08,6.7S507.78,49,505.93,51c-.72.76-2.4.84-3.64.85-23.27,0-46.55,0-70.51,0ZM504.41,83.5a8.89,8.89,0,0,1-1.62.22h-71V68.46h6.63q29.78,0,59.55,0a38.57,38.57,0,0,1,7,.67c4,.73,5.88,3.41,5.8,7.39S508.27,82.78,504.41,83.5Z"/><polygon class="cls-1" points="975.33 83.58 975.33 68.32 1038.62 68.32 1038.62 51.99 975.41 51.99 975.41 36.33 1070.47 36.33 1070.47 20.24 958.79 20.24 958.79 99.72 1070.62 99.72 1070.62 83.58 975.33 83.58"/><polygon class="cls-1" points="279.77 99.87 391.17 99.87 391.17 83.49 296.11 83.49 296.11 68.41 359.13 68.41 359.13 51.96 296.09 51.96 296.09 36.42 391.27 36.42 391.27 20.25 279.77 20.25 279.77 99.87"/><polygon class="cls-1" points="551.45 99.87 662.73 99.87 662.73 83.65 567.99 83.65 567.99 68.31 631.08 68.31 631.08 51.65 567.95 51.65 567.95 36.49 662.76 36.49 662.76 20.38 551.45 20.38 551.45 99.87"/><path class="cls-1" d="M229.94,19.93c-27.13-.24-54.27-.07-81.4,0a26,26,0,0,0-3.91.65V98.91h16V67.55c9.59,0,18.15-.17,26.68.18,1.38.06,3.4,2.25,3.87,3.82a33.82,33.82,0,0,0,19.41,22.32c13.53,6,27.9,5.54,42.26,5.23V82.88c-5.45,0-10.41.51-15.23-.12a138.52,138.52,0,0,1-21.19-4.25c-4.78-1.42-7.78-5.38-8.89-11,9,0,17.37.13,25.73,0a22.51,22.51,0,0,0,22.17-21.86C256,30.57,245.92,20.07,229.94,19.93Zm9.17,24.93c-.3,4-2.62,5.79-6.3,6.24a32.22,32.22,0,0,1-3.81.07q-31.08,0-62.15,0c-1.77,0-3.53-.16-5.59-.27V36.66c1.61-.16,3.16-.44,4.71-.44q30.53,0,61.05,0a30,30,0,0,1,7,.78C238,38,239.4,40.91,239.11,44.86Z"/><path class="cls-1" d="M63.68,20.69c-13,.24-25.61,2.54-37.11,9.41C7.11,41.7,3.47,68.42,19.28,84.58A46.65,46.65,0,0,0,50.92,98.84c22.69,1.08,45.44.76,68.17,1,.31,0,.61-.32.89-.47V83.79c-18.24,0-35.88.14-53.52-.06-10.4-.12-20.72-1-30-6.46C22.1,69,21.76,51.59,36.22,43.56a42,42,0,0,1,17.49-5.42c19.41-1,38.88-1,58.33-1.29,2.65-.05,5.3,0,8.2,0V20.93a30.6,30.6,0,0,0-3-.34C99.35,20.59,81.51,20.38,63.68,20.69Z"/><polygon class="cls-1" points="838.9 19.89 823.1 19.89 823.1 99.67 934.49 99.67 934.49 83.5 838.9 83.5 838.9 19.89"/><polygon class="cls-1" points="703.09 19.83 687.27 19.83 687.27 99.64 798.53 99.64 798.53 83.38 703.09 83.38 703.09 19.83"/></g></svg>